<mxfile host="app.diagrams.net" modified="2023-04-11T23:11:24.132Z" agent="Mozilla/5.0 (Windows NT 10.0; Win64; x64) AppleWebKit/537.36 (KHTML, like Gecko) Chrome/111.0.0.0 Safari/537.36" etag="Z4s9YQMNYoVTq-CQrg-X" version="21.1.6" type="device">
  <diagram name="MER" id="5k2rTNS_U-rYIlI2lLzO">
    <mxGraphModel dx="880" dy="484" grid="1" gridSize="10" guides="1" tooltips="1" connect="1" arrows="1" fold="1" page="1" pageScale="1" pageWidth="827" pageHeight="1169" math="0" shadow="0">
      <root>
        <mxCell id="0" />
        <mxCell id="1" parent="0" />
        <mxCell id="rvYL3fljUo6YsXFuQ4mQ-4" style="edgeStyle=orthogonalEdgeStyle;rounded=0;orthogonalLoop=1;jettySize=auto;html=1;entryX=0;entryY=0.5;entryDx=0;entryDy=0;endArrow=none;endFill=0;" edge="1" parent="1" source="rvYL3fljUo6YsXFuQ4mQ-1" target="rvYL3fljUo6YsXFuQ4mQ-3">
          <mxGeometry relative="1" as="geometry" />
        </mxCell>
        <mxCell id="rvYL3fljUo6YsXFuQ4mQ-1" value="FILME" style="rounded=0;whiteSpace=wrap;html=1;" vertex="1" parent="1">
          <mxGeometry x="50" y="130" width="140" height="80" as="geometry" />
        </mxCell>
        <mxCell id="rvYL3fljUo6YsXFuQ4mQ-2" value="GENERO" style="rounded=0;whiteSpace=wrap;html=1;" vertex="1" parent="1">
          <mxGeometry x="570" y="130" width="140" height="80" as="geometry" />
        </mxCell>
        <mxCell id="rvYL3fljUo6YsXFuQ4mQ-5" style="edgeStyle=orthogonalEdgeStyle;rounded=0;orthogonalLoop=1;jettySize=auto;html=1;endArrow=none;endFill=0;" edge="1" parent="1" source="rvYL3fljUo6YsXFuQ4mQ-3" target="rvYL3fljUo6YsXFuQ4mQ-2">
          <mxGeometry relative="1" as="geometry" />
        </mxCell>
        <mxCell id="rvYL3fljUo6YsXFuQ4mQ-3" value="POSSUI&amp;nbsp;" style="rhombus;whiteSpace=wrap;html=1;" vertex="1" parent="1">
          <mxGeometry x="270" y="130" width="200" height="80" as="geometry" />
        </mxCell>
        <mxCell id="rvYL3fljUo6YsXFuQ4mQ-6" value="&lt;font style=&quot;font-size: 18px;&quot;&gt;1&lt;/font&gt;" style="text;html=1;align=center;verticalAlign=middle;resizable=0;points=[];autosize=1;strokeColor=none;fillColor=none;strokeWidth=5;" vertex="1" parent="1">
          <mxGeometry x="540" y="135" width="30" height="40" as="geometry" />
        </mxCell>
        <mxCell id="rvYL3fljUo6YsXFuQ4mQ-7" value="&lt;font style=&quot;font-size: 18px;&quot;&gt;N&lt;/font&gt;" style="text;html=1;align=center;verticalAlign=middle;resizable=0;points=[];autosize=1;strokeColor=none;fillColor=none;" vertex="1" parent="1">
          <mxGeometry x="185" y="135" width="40" height="40" as="geometry" />
        </mxCell>
        <mxCell id="rvYL3fljUo6YsXFuQ4mQ-8" value="&lt;b&gt;&lt;font style=&quot;font-size: 18px;&quot;&gt;N:1&lt;/font&gt;&lt;/b&gt;" style="text;html=1;align=center;verticalAlign=middle;resizable=0;points=[];autosize=1;strokeColor=none;fillColor=none;" vertex="1" parent="1">
          <mxGeometry x="345" y="230" width="50" height="40" as="geometry" />
        </mxCell>
      </root>
    </mxGraphModel>
  </diagram>
</mxfile>
